<svg viewBox="0 0 400 300" xmlns="http://www.w3.org/2000/svg"><path d="m81.05 79.1h237.9v141.8h-237.9z" fill="#68e1fd"/><path d="m319 221.9h-237.95a1 1 0 0 1 -1-1v-141.8a1 1 0 0 1 1-1h237.95a1 1 0 0 1 1 1v141.8a1 1 0 0 1 -1 1zm-236.9-2h235.9v-139.8h-235.95z" fill="#093f68"/><path d="m245.31 151.25h22.26s17-21.08 17-34.52c0-18.57-13.72-27.22-28.13-27.22s-28.13 8.65-28.13 27.22c0 13.44 17 34.52 17 34.52z" fill="#ffbc0e"/><path d="m267.57 152.25h-22.26a1 1 0 0 1 -.78-.38c-.7-.87-17.22-21.51-17.22-35.14 0-19.49 14.63-28.22 29.13-28.22s29.13 8.73 29.13 28.22c0 13.63-16.52 34.27-17.22 35.14a1 1 0 0 1 -.78.38zm-21.78-2h21.3c2.24-2.87 16.48-21.55 16.48-33.52 0-18.11-13.63-26.22-27.13-26.22s-27.13 8.11-27.13 26.22c0 11.97 14.24 30.65 16.48 33.52z" fill="#093f68"/><path d="m261.91 152.25h-10.91a1 1 0 0 1 -.93-.64c-.34-.86-8.42-21.41-8.42-34.88 0-14 4.58-28.22 14.82-28.22s14.83 14.17 14.83 28.22c0 13.47-8.09 34-8.43 34.88a1 1 0 0 1 -.96.64zm-10.25-2h9.57c1.37-3.6 8-21.72 8-33.52 0-18.11-6.45-26.22-12.83-26.22s-12.82 8.11-12.82 26.22c.04 11.8 6.71 29.92 8.08 33.52z" fill="#093f68"/><rect fill="#ffbc0e" height="14.24" rx="3.14" width="20.86" x="245.75" y="161.85"/><g fill="#093f68"><path d="m263.47 177.08h-14.58a4.15 4.15 0 0 1 -4.14-4.14v-8a4.14 4.14 0 0 1 4.14-4.13h14.58a4.14 4.14 0 0 1 4.14 4.13v8a4.15 4.15 0 0 1 -4.14 4.14zm-14.58-14.23a2.13 2.13 0 0 0 -2.14 2.13v8a2.14 2.14 0 0 0 2.14 2.14h14.58a2.14 2.14 0 0 0 2.14-2.14v-8a2.13 2.13 0 0 0 -2.14-2.13z"/><path d="m256.44 152.25a1 1 0 0 1 -1-1v-61.74a1 1 0 1 1 2 0v61.74a1 1 0 0 1 -1 1z"/><path d="m247.44 162.85a1.06 1.06 0 0 1 -.73-.31c-.36-.37-.5-.52-.27-11.32a1 1 0 0 1 1-1 1 1 0 0 1 1 1c-.1 4.39-.15 9.36-.06 10.25a.88.88 0 0 1 .06.33 1 1 0 0 1 -1 1.05z"/><path d="m264.58 162.85a1 1 0 0 1 -.72-.31c-.37-.37-.51-.52-.28-11.32a1 1 0 0 1 1-1 1 1 0 0 1 1 1c-.09 4.39-.14 9.36-.06 10.25a.88.88 0 0 1 .06.33 1 1 0 0 1 -1 1.05z"/></g><path d="m254.58 220.9h-143l27.3-42.45 20.28-31.54 23.92-37.2 19.47 30.27z" fill="#f56132"/><path d="m254.58 221.9h-143a1 1 0 0 1 -.84-1.54l71.5-111.19a1 1 0 0 1 1.68 0l71.5 111.19a1 1 0 0 1 -.84 1.54zm-141.17-2h139.34l-69.67-108.34z" fill="#093f68"/><path d="m166.18 220.9h-85.13v-37.42l13.92-21.67 16.61-25.82 17.27 26.85 10.03 15.61z" fill="#f56132"/><path d="m166.18 221.9h-85.13a1 1 0 0 1 -1-1v-37.42a1 1 0 0 1 .16-.54l30.53-47.49a1 1 0 0 1 1.68 0l54.58 84.91a1 1 0 0 1 -.84 1.54zm-84.13-2h82.29l-52.76-82.06-29.53 45.93z" fill="#093f68"/><path d="m202.55 140a14.33 14.33 0 0 1 -7.42-1.15c-1.45-.66-2.92-1.59-4.49-1.36-2.71.38-4.1 3.91-6.77 4.5-4.26 1-6.63-5.11-10.87-4.55-4.42.59-7.64 7.38-12.27 9-.53.19-1 .34-1.57.47l23.92-37.2z" fill="#fff"/><path d="m159.16 147.91a1 1 0 0 1 -.84-1.54l23.92-37.2a1 1 0 0 1 1.68 0l19.47 30.27a1 1 0 0 1 .06 1 1 1 0 0 1 -.8.57 15.52 15.52 0 0 1 -7.94-1.24l-.78-.38a5.84 5.84 0 0 0 -3.14-.9 5.9 5.9 0 0 0 -2.94 2 8 8 0 0 1 -3.76 2.51c-2.65.59-4.65-1-6.41-2.43-1.49-1.19-2.9-2.32-4.55-2.11-2 .27-3.85 2.17-5.82 4.18s-3.85 3.94-6.25 4.79a15.39 15.39 0 0 1 -1.65.5 1 1 0 0 1 -.25-.02zm23.92-36.35-21.43 33.33a22.81 22.81 0 0 0 4.23-3.7c2.12-2.16 4.31-4.4 7-4.76 2.49-.33 4.39 1.19 6.06 2.53s3 2.42 4.73 2a6.49 6.49 0 0 0 2.79-2 5.86 5.86 0 0 1 8.35-1.45l.74.35a13.13 13.13 0 0 0 5.23 1.14z" fill="#093f68"/><path d="m128.85 162.84a13.29 13.29 0 0 1 -10.72 0c-2-1-4-2.57-6.23-2.37-3.68.34-5.58 5.25-9.21 5.93-3.14.58-5.36-2-7.71-4.56l16.6-25.84z" fill="#fff"/><path d="m101.79 167.45c-3 0-5.1-2.32-7.19-4.57l-.36-.39a1 1 0 0 1 -.11-1.22l16.61-25.82a1 1 0 0 1 1.68 0l17.27 26.85a1 1 0 0 1 .11.84 1 1 0 0 1 -.58.63 14.16 14.16 0 0 1 -11.52-.06c-.54-.26-1.08-.56-1.62-.86-1.41-.79-2.74-1.54-4.09-1.41-1.54.14-2.81 1.37-4.14 2.68s-2.92 2.85-5 3.23a6 6 0 0 1 -1.06.1zm-5.55-5.75c2.07 2.24 3.9 4.12 6.27 3.69 1.46-.28 2.66-1.45 3.94-2.7 1.53-1.49 3.11-3 5.36-3.25 2-.17 3.64.76 5.25 1.66.5.29 1 .57 1.5.81a12 12 0 0 0 8.77.42l-15.75-24.49z" fill="#093f68"/><path d="m82.09 118.93a1 1 0 0 1 0-2c15 0 41.54 0 53.43-.05l-8.26-2.81a1 1 0 0 1 -.66-1.1 8.35 8.35 0 0 0 -1.21-5.45c-1.67-2.73-3-3.13-5.49-3-1.25.06-6.24 1-7 1.86a1 1 0 0 1 -.85 1 1 1 0 0 1 -1.14-.83c-.08-.48-.14-1-.21-1.44a22.15 22.15 0 0 0 -1.07-4.91 6.85 6.85 0 0 0 -6.94-4.6 13.17 13.17 0 0 0 -8.69 4.34 1 1 0 0 1 -.71.35 1 1 0 0 1 -.74-.26c-2.45-2.3-4.71-3-6.91-2.24a4.83 4.83 0 0 0 -3.09 3.61 1 1 0 0 1 -1.17.78 1 1 0 0 1 -.79-1.17 6.77 6.77 0 0 1 4.41-5.1c2.68-1 5.43-.29 8.18 2a15.32 15.32 0 0 1 9.35-4.37 8.83 8.83 0 0 1 9 5.85 21.66 21.66 0 0 1 1.11 4.82 26.8 26.8 0 0 1 7.24-1.72c3-.12 5.13.49 7.28 4a10.57 10.57 0 0 1 1.56 6l13.25 4.48a1 1 0 0 1 .66 1.11 1 1 0 0 1 -1 .84s-39.77.01-59.54.01z" fill="#093f68"/><path d="m319 190.45v30.45h-50.81a9.25 9.25 0 0 1 9.08-4.29 4 4 0 0 0 2-.05 4.35 4.35 0 0 0 1.42-1.32 12.78 12.78 0 0 1 13.13-4.2c1-4.08 2.53-8.74 6.39-10.18 1.19-.45 2.5-.53 3.66-1.05a11.49 11.49 0 0 0 3.39-2.8c3.2-3.31 7.26-6.42 11.74-6.56z" fill="#70cc40"/><path d="m319 221.9h-50.81a1 1 0 0 1 -.85-1.52 10.28 10.28 0 0 1 10-4.76h.24a2.74 2.74 0 0 0 1.28 0 3 3 0 0 0 .9-.88l.13-.15a13.92 13.92 0 0 1 13.19-4.77c1.17-4.38 2.88-8.47 6.76-9.92a15.26 15.26 0 0 1 1.81-.5 9.36 9.36 0 0 0 1.79-.52 9.86 9.86 0 0 0 2.88-2.37l.2-.21c4.34-4.5 8.38-6.74 12.37-6.87a.94.94 0 0 1 .73.28 1 1 0 0 1 .3.72v30.47a1 1 0 0 1 -.92 1zm-48.71-2h47.71v-28.36c-3.1.46-6.45 2.53-10 6.16l-.19.21a11.49 11.49 0 0 1 -3.51 2.81 10.72 10.72 0 0 1 -2.17.65 12.9 12.9 0 0 0 -1.55.43c-3.3 1.23-4.72 5.28-5.77 9.48a1 1 0 0 1 -1.24.72 11.83 11.83 0 0 0 -12.09 3.87l-.12.15a4.63 4.63 0 0 1 -1.67 1.46 4.46 4.46 0 0 1 -2.32.15h-.21a8.35 8.35 0 0 0 -6.92 2.27z" fill="#093f68"/><path d="m289.2 163.87a1 1 0 0 1 -1-.79 1 1 0 0 1 .57-1.12l.63-.28 2.59-1.16a.67.67 0 0 0 .18-.08c0-.06-.05-.17-.07-.25v-.18c-.57-2.48 1-4.83 2.7-6.2a11.86 11.86 0 0 1 9.92-2.37 22.39 22.39 0 0 1 9.35-12.1 21.55 21.55 0 0 1 4.59-2.13 1 1 0 1 1 .62 1.9 19.67 19.67 0 0 0 -4.18 1.89 20.4 20.4 0 0 0 -8.75 11.88 1 1 0 0 1 -.48.62 1 1 0 0 1 -.79.07 10 10 0 0 0 -9 1.75c-1.21 1-2.38 2.61-2 4.2v.15a2.21 2.21 0 0 1 -.06 1.65 1.36 1.36 0 0 1 -.32.45c7.5-.13 15.19-.43 23.36-.92h1.94a1 1 0 0 1 0 2h-1.9c-9.79.58-18.93.9-27.89 1z" fill="#093f68"/></svg>