<svg viewBox="0 0 72 72" xmlns="http://www.w3.org/2000/svg"><g fill="none" stroke="#000" stroke-width="2"><path d="m28.6 36.1v.7c0 6.2-3.9 11.3-8.7 11.3s-8.7-5.1-8.7-11.3c0-.2 0-.4 0-.7" stroke-miterlimit="10"/><path d="m9.1 31.4c.6-8.7 7.2-8.8 10.5-8.3.3.1 1.2 0 1.5 0 6-.8 9 6 9 9 0 1.1 0 3.8-1.5 5.3 0 0-3.4-4.2-3.6-6.6 0 0-11.4 4.3-12.2.6 0 0-.8 3-1.5 3.8v3s-2.5-3-2.2-6.8z" stroke-linecap="round" stroke-linejoin="round"/><path d="m36 11.7c1.1-2.4 4-3.4 6.3-2.2s3.3 4 2.2 6.4c-.1.3-.3.5-.4.7l-8.1 10.4-8.1-10.4c-.2-.2-.3-.5-.4-.7-1.1-2.4-.1-5.2 2.2-6.4s5.2-.2 6.3 2.2z" stroke-linecap="round" stroke-linejoin="round"/><path d="m39.4 49.4c-3-4.5-.6-7.7.8-11.3 1.2-3.2-.2-4.9 1-9.1 1.1-4.1 5.5-6.7 10.3-6.7 4.1 0 6 2.3 6 2.3 3.1.3 5.5 2.9 5.6 6 .3 5.4.8 5.4 2.6 9.6 1.3 3.1.8 6.6-1.4 9.1" stroke-linecap="round" stroke-linejoin="round"/><path d="m43.7 37.5c0 6 3.8 10.5 8.3 10.5s8.3-4.5 8.3-10.5c0-3.8-1.5-6-4.5-9-3 3-12 6.8-12 8.3z" stroke-linejoin="round" stroke-miterlimit="10"/><path d="m38 60v-2.3c0-3.7 3.7-6.7 7.4-6.7 4.4 3.7 8.8 3.7 13.3 0 3.7 0 7.4 3 7.4 6.7v2.3" stroke-linecap="round" stroke-linejoin="round"/><path d="m6 60v-2.3c0-3.7 3.7-6.7 7.4-6.7 4.4 3.7 8.8 3.7 13.3 0 3.7 0 7.4 3 7.4 6.7v2.3" stroke-linecap="round" stroke-linejoin="round"/></g><path d="m56.2 37.2c0 .8-.6 1.4-1.4 1.4s-1.4-.6-1.4-1.4.6-1.4 1.4-1.4 1.4.6 1.4 1.4"/><path d="m50.6 37.2c0 .8-.6 1.4-1.4 1.4s-1.4-.6-1.4-1.4.6-1.4 1.4-1.4 1.4.6 1.4 1.4"/><path d="m49.9 42.9c1.3.7 2.9.7 4.2 0" fill="none" stroke="#000" stroke-linecap="round" stroke-linejoin="round" stroke-width="2"/><path d="m24.2 37.4c0 .8-.6 1.4-1.4 1.4s-1.4-.6-1.4-1.4.6-1.4 1.4-1.4 1.4.7 1.4 1.4"/><path d="m18.6 37.4c0 .8-.6 1.4-1.4 1.4s-1.4-.6-1.4-1.4.6-1.4 1.4-1.4 1.4.7 1.4 1.4"/><path d="m17.9 43.2c1.3.7 2.9.7 4.2 0" fill="none" stroke="#000" stroke-linecap="round" stroke-linejoin="round" stroke-width="2"/></svg>