<svg width="1024" height="1024" xmlns="http://www.w3.org/2000/svg">

 <g>
  <title>background</title>
  <rect fill="none" id="canvas_background" height="402" width="582" y="-1" x="-1"/>
 </g>
 <g>
  <title>Layer 1</title>
  <path fill="#ffffff" id="svg_1" d="m581.76,80.496c3.808,0 5.999,0.16 5.999,0.16l83.568,0l-0.431,96l-83.008,0c-45.68,0 -44.624,39.007 -44.624,39.007l0,152.192l161.632,0l-22.56,95.872l-139.6,0l0,479.776l-95.904,0l-0.064,-479.776l-127.408,0l-0.256,-95.872l127.712,0l0,-149.184c0.014,-130.08 108.048,-138.176 134.944,-138.176l0,0.001zm89.567,0.158l0.16,0l-0.16,0zm-89.567,-64.16c-23.008,0 -67.97,3.809 -110.562,29.473c-40.32,24.256 -88.368,73.935 -88.368,172.688l0,85.183l-63.712,0c-17.008,0 -33.312,6.784 -45.344,18.817a64.003,64.003 0 0 0 -18.655,45.408l0.256,95.872c0.128,35.248 28.752,63.776 64,63.776l63.408,0l0.064,415.776c0,35.344 28.657,64 64,64l95.905,0c35.343,0 64,-28.656 64,-64l0,-415.775l75.6,0c28.4,0 53.407,-18.72 61.407,-45.967l22.56,-95.873c5.68,-19.343 1.903,-40.255 -10.192,-56.368a63.912,63.912 0 0 0 -51.217,-25.664l-97.632,0l0,-63.152l63.632,-0.032c35.216,0 63.84,-28.464 64,-63.712l0.431,-92.752a64.3,64.3 0 0 0 0.097,-3.536c0,-35.344 -28.592,-64 -63.935,-64l-81.936,0c-1.84,-0.096 -4.496,-0.16 -7.807,-0.161l0,-0.001z"/>
 </g>
</svg>