<svg width="72" height="72" xmlns="http://www.w3.org/2000/svg">

 <g>
  <title>background</title>
  <rect fill="none" id="canvas_background" height="402" width="582" y="-1" x="-1"/>
 </g>
 <g>
  <title>Layer 1</title>
  <path fill="#ffffff" id="svg_2" stroke-miterlimit="10" d="m28.6,36.1l0,0.7c0,6.2 -3.9,11.3 -8.7,11.3s-8.7,-5.1 -8.7,-11.3c0,-0.2 0,-0.4 0,-0.7"/>
  <path fill="#ffffff" id="svg_3" stroke-linejoin="round" stroke-linecap="round" d="m9.1,31.4c0.6,-8.7 7.2,-8.8 10.5,-8.3c0.3,0.1 1.2,0 1.5,0c6,-0.8 9,6 9,9c0,1.1 0,3.8 -1.5,5.3c0,0 -3.4,-4.2 -3.6,-6.6c0,0 -11.4,4.3 -12.2,0.6c0,0 -0.8,3 -1.5,3.8l0,3s-2.5,-3 -2.2,-6.8z"/>
  <path fill="#ffffff" id="svg_4" stroke-linejoin="round" stroke-linecap="round" d="m36,11.7c1.1,-2.4 4,-3.4 6.3,-2.2s3.3,4 2.2,6.4c-0.1,0.3 -0.3,0.5 -0.4,0.7l-8.1,10.4l-8.1,-10.4c-0.2,-0.2 -0.3,-0.5 -0.4,-0.7c-1.1,-2.4 -0.1,-5.2 2.2,-6.4s5.2,-0.2 6.3,2.2z"/>
  <path fill="#ffffff" id="svg_5" stroke-linejoin="round" stroke-linecap="round" d="m39.4,49.4c-3,-4.5 -0.6,-7.7 0.8,-11.3c1.2,-3.2 -0.2,-4.9 1,-9.1c1.1,-4.1 5.5,-6.7 10.3,-6.7c4.1,0 6,2.3 6,2.3c3.1,0.3 5.5,2.9 5.6,6c0.3,5.4 0.8,5.4 2.6,9.6c1.3,3.1 0.8,6.6 -1.4,9.1"/>
  <path fill="#ffffff" id="svg_6" stroke-miterlimit="10" stroke-linejoin="round" d="m43.7,37.5c0,6 3.8,10.5 8.3,10.5s8.3,-4.5 8.3,-10.5c0,-3.8 -1.5,-6 -4.5,-9c-3,3 -12,6.8 -12,8.3l-0.1,0.7z"/>
  <path fill="#ffffff" id="svg_7" stroke-linejoin="round" stroke-linecap="round" d="m38,60l0,-2.3c0,-3.7 3.7,-6.7 7.4,-6.7c4.4,3.7 8.8,3.7 13.3,0c3.7,0 7.4,3 7.4,6.7l0,2.3"/>
  <path fill="#ffffff" id="svg_8" stroke-linejoin="round" stroke-linecap="round" d="m6,60l0,-2.3c0,-3.7 3.7,-6.7 7.4,-6.7c4.4,3.7 8.8,3.7 13.3,0c3.7,0 7.4,3 7.4,6.7l0,2.3"/>
  <path id="svg_9" d="m56.2,37.2c0,0.8 -0.6,1.4 -1.4,1.4s-1.4,-0.6 -1.4,-1.4s0.6,-1.4 1.4,-1.4s1.4,0.6 1.4,1.4"/>
  <path id="svg_10" d="m50.6,37.2c0,0.8 -0.6,1.4 -1.4,1.4s-1.4,-0.6 -1.4,-1.4s0.6,-1.4 1.4,-1.4s1.4,0.6 1.4,1.4"/>
  <path id="svg_11" stroke-width="2" stroke-linejoin="round" stroke-linecap="round" stroke="#000" fill="none" d="m49.9,42.9c1.3,0.7 2.9,0.7 4.2,0"/>
  <path id="svg_12" d="m24.2,37.4c0,0.8 -0.6,1.4 -1.4,1.4s-1.4,-0.6 -1.4,-1.4s0.6,-1.4 1.4,-1.4s1.4,0.7 1.4,1.4"/>
  <path id="svg_13" d="m18.6,37.4c0,0.8 -0.6,1.4 -1.4,1.4s-1.4,-0.6 -1.4,-1.4s0.6,-1.4 1.4,-1.4s1.4,0.7 1.4,1.4"/>
  <path id="svg_14" stroke-width="2" stroke-linejoin="round" stroke-linecap="round" stroke="#000" fill="#ffffff" d="m17.9,43.2c1.3,0.7 2.9,0.7 4.2,0"/>
 </g>
</svg>