<svg width="60" height="60" xmlns="http://www.w3.org/2000/svg">

 <g>
  <title>background</title>
  <rect fill="#e5e5e5" id="canvas_background" height="62" width="62" y="-1" x="-1"/>
 </g>
 <g>
  <title>Layer 1</title>
  <path fill="#ffffff" id="svg_2" d="m19.888317,43.619293l-6,0c0,2.20914 -1.79086,4 -4,4s-4,-1.79086 -4,-4l0,-3.5c0,-1.933 1.56508,-3.5 3.49603,-3.5l43.00794,0c1.9308,0 3.49603,1.57094 3.49603,3.5l0,3.5c0,2.20914 -1.79086,4 -4,4s-4,-1.79086 -4,-4l-6,0c0,2.20914 -1.79086,4 -4,4s-4,-1.79086 -4,-4l-6,0c0,2.20914 -1.79086,4 -4,4s-23,-48 -4,-4z"/>
  <circle id="svg_3" r="1" cy="43" cx="23"/>
  <circle id="svg_4" r="1" cy="43" cx="51"/>
  <circle id="svg_5" r="1" cy="28" cx="37"/>
  <path fill="#ffffff" stroke="null" id="svg_6" d="m19.126902,26.65022l-7,0l0,-3.015464c0,-1.665398 1.57002,-3.015464 3.50094,-3.015464l28.99812,0c1.93351,0 3.50094,1.353461 3.50094,3.015464l0,3.015464l-7,0c0,1.903309 -1.79086,3.446244 -4,3.446244s-4,-1.542935 -4,-3.446244l-6,0c0,1.903309 -1.79086,3.446244 -4,3.446244s-4,-1.542935 -4,-3.446244z"/>
  <path fill="#ffffff" id="svg_7" d="m51,49l0,8l-42,0l0,-8"/>
  <path fill="#ffffff" id="svg_8" d="m45.380707,29.126902l0,8l-30,0l0,-8"/>
  <path fill="#ffffff" transform="rotate(1 29.99999999999982,10.405289649963416) " id="svg_9" d="m24.8632,3.24291c-2.64401,0.9896 -3.63553,4.71768 -2.21461,8.3269c1.41934,3.60521 7.20643,6.24077 7.20643,6.24077s6.07705,-2.63556 7.49639,-6.24077c1.42092,-3.60922 0.4294,-7.3373 -2.21461,-8.3269c-1.66418,-0.62288 -3.58637,-0.01241 -5.1368,1.42556c0,0 -3.47262,-2.04844 -5.1368,-1.42556z"/>
 </g>
</svg>