<svg width="16" height="16" xmlns="http://www.w3.org/2000/svg">

 <g>
  <title>background</title>
  <rect fill="none" id="canvas_background" height="402" width="582" y="-1" x="-1"/>
 </g>
 <g>
  <title>Layer 1</title>
  <path id="svg_1" fill="#ffffff" d="m12,5.20951l0,5.05799c-0.2942,-0.1701 -0.6357,-0.26752 -1,-0.26752c-1.10457,0 -2,0.89542 -2,2.00002c0,1.1045 0.89543,2 2,2c1.1046,0 2,-0.8955 2,-2l0,-10.07432c0,-0.55323 -0.5481,-0.93947 -1.0691,-0.7534l-6.39997,2.28572c-0.31839,0.11371 -0.53093,0.4153 -0.53093,0.75339l0,7.05611c-0.29417,-0.1701 -0.63571,-0.2675 -1,-0.2675c-1.10457,0 -2,0.8954 -2,2c0,1.1045 0.89543,2 2,2s2,-0.8955 2,-2l0,-5.64763l6,-2.14286z"/>
 </g>
</svg>