<svg width="416" height="512" xmlns="http://www.w3.org/2000/svg">

 <g>
  <title>background</title>
  <rect fill="none" id="canvas_background" height="402" width="582" y="-1" x="-1"/>
 </g>
 <g>
  <title>Layer 1</title>
  <path fill="#ffffff" id="svg_1" d="m207.99,112c2.05,0 4.1,-0.81 5.66,-2.42l48.37,-49.95c14.07,-14.53 12.32,-39.38 -2.45,-51.97c-14.76,-12.6 -34.32,-9.31 -46.64,3.4l-4.93,5.08l-4.93,-5.08c-12.56,-12.96 -32.95,-15.08 -46.64,-3.4c-15.71,13.39 -16.53,37.46 -2.48,51.97l48.38,49.95a7.86,7.86 0 0 0 5.66,2.42zm208.01,400l-416,0l0,-107.11c9.68,14.21 20.66,35.11 48,35.11c41.39,0 45.28,-48 64,-48c18.84,0 22.44,48 64,48c41.34,0 45.32,-48 64,-48c18.75,0 22.56,48 64,48c41.37,0 45.24,-48 64,-48c16,0 21.17,34.9 48,45.18l0,74.82zm-416,-149.18l0,-10.82c0,-17.6 14.4,-32 32,-32l352,0c17.6,0 32,14.4 32,32l0,43.19c-9.69,-14.22 -20.59,-35.19 -48,-35.19c-41.46,0 -45.16,48 -64,48c-18.72,0 -22.56,-48 -64,-48c-41.5,0 -45.2,48 -64,48c-18.69,0 -22.64,-48 -64,-48s-45.32,48 -64,48c-16.01,0 -21.12,-34.91 -48,-45.18zm352,-74.82l-288,0l0,-83.12c9.7,14.22 20.7,35.12 48,35.12c41.36,0 45.31,-48 64,-48c18.8,0 22.5,48 64,48c41.44,0 45.28,-48 64,-48c16.07,0 21.13,34.92 48,45.19l0,50.81zm-288,-125.18l0,-5.87c0,-15.92 13.03,-28.95 28.95,-28.95l230.1,0c15.92,0 28.95,13.03 28.95,28.95l0,38.22c-9.7,-14.21 -20.67,-35.17 -48,-35.17c-41.44,0 -45.25,48 -64,48c-18.68,0 -22.66,-48 -64,-48c-41.56,0 -45.16,48 -64,48c-15.96,0 -21.14,-34.91 -48,-45.18z"/>
 </g>
</svg>