<svg width="24" height="24" xmlns="http://www.w3.org/2000/svg">

 <g>
  <title>background</title>
  <rect fill="none" id="canvas_background" height="402" width="582" y="-1" x="-1"/>
 </g>
 <g>
  <title>Layer 1</title>
  <path id="svg_1" fill-rule="evenodd" fill="#ffffff" d="m7.46494,1.066c1.17334,-0.05378 1.54734,-0.066 4.53506,-0.066c2.9883,0 3.3617,0.01283 4.5344,0.066c1.1715,0.05317 1.9715,0.23956 2.6712,0.5115c0.7339,0.27631 1.3987,0.70924 1.9482,1.26867c0.5595,0.54943 0.9925,1.21429 1.2687,1.94822c0.2719,0.69972 0.4577,1.49967 0.5115,2.67055c0.0538,1.17334 0.066,1.54734 0.066,4.53506c0,2.9877 -0.0128,3.3617 -0.066,4.5351c-0.0532,1.1708 -0.2396,1.9708 -0.5115,2.6705c-0.2811,0.723 -0.6576,1.3371 -1.2687,1.9482c-0.5494,0.5595 -1.2143,0.9925 -1.9482,1.2687c-0.6997,0.2719 -1.4997,0.4577 -2.6705,0.5115c-1.1734,0.0538 -1.5474,0.066 -4.5351,0.066c-2.98772,0 -3.36172,-0.0128 -4.53506,-0.066c-1.17088,-0.0532 -1.97083,-0.2396 -2.67055,-0.5115c-0.72295,-0.2811 -1.33711,-0.6576 -1.94822,-1.2687c-0.55953,-0.5494 -0.99249,-1.2143 -1.26867,-1.9482c-0.27194,-0.6997 -0.45772,-1.4997 -0.5115,-2.6705c-0.05378,-1.1734 -0.066,-1.5468 -0.066,-4.5351c0,-2.98833 0.01283,-3.36172 0.066,-4.53444c0.05317,-1.1715 0.23956,-1.97145 0.5115,-2.67117c0.27631,-0.73388 0.70924,-1.39871 1.26867,-1.94822c0.54942,-0.55953 1.21428,-0.99249 1.94822,-1.26867c0.69972,-0.27194 1.49967,-0.45772 2.67055,-0.5115zm8.98026,1.98c-1.1599,-0.05256 -1.5082,-0.06417 -4.4452,-0.06417s-3.28533,0.01161 -4.44522,0.06417c-1.0725,0.04889 -1.65489,0.22794 -2.04234,0.37889c-0.51333,0.19922 -0.88,0.43755 -1.265,0.82255c-0.38438,0.385 -0.62333,0.75167 -0.82255,1.265c-0.15095,0.38745 -0.33,0.96984 -0.37889,2.04234c-0.05256,1.15989 -0.06417,1.50822 -0.06417,4.44522s0.01161,3.2853 0.06417,4.4452c0.04889,1.0725 0.22794,1.6549 0.37889,2.0424c0.17622,0.4778 0.4573,0.91 0.82255,1.265c0.3549,0.3652 0.78717,0.6463 1.265,0.8225c0.38745,0.151 0.96984,0.33 2.04234,0.3789c1.15989,0.0526 1.50761,0.0642 4.44522,0.0642c2.9376,0 3.2853,-0.0116 4.4452,-0.0642c1.0725,-0.0489 1.6549,-0.2279 2.0424,-0.3789c0.5133,-0.1992 0.88,-0.4375 1.265,-0.8225c0.3652,-0.3549 0.6463,-0.7872 0.8225,-1.265c0.151,-0.3875 0.33,-0.9699 0.3789,-2.0424c0.0526,-1.1599 0.0642,-1.5082 0.0642,-4.4452s-0.0116,-3.28533 -0.0642,-4.44522c-0.0489,-1.0725 -0.2279,-1.65489 -0.3789,-2.04234c-0.1992,-0.51333 -0.4375,-0.88 -0.8225,-1.265c-0.385,-0.38438 -0.7517,-0.62333 -1.265,-0.82255c-0.3875,-0.15095 -0.9699,-0.33 -2.0424,-0.37889zm-5.8497,12.3449c0.4453,0.1845 0.9225,0.2794 1.4045,0.2794c0.9735,0 1.907,-0.3867 2.5953,-1.075c0.6884,-0.6883 1.0751,-1.6219 1.0751,-2.5953s-0.3867,-1.907 -1.0751,-2.59532c-0.6883,-0.68832 -1.6218,-1.07502 -2.5953,-1.07502c-0.482,0 -0.9592,0.09494 -1.4045,0.27939c-0.4454,0.18445 -0.84997,0.4548 -1.19079,0.79563c-0.34082,0.34082 -0.61118,0.74542 -0.79563,1.19072s-0.27938,0.9226 -0.27938,1.4046s0.09493,0.9593 0.27938,1.4046s0.45481,0.8499 0.79563,1.1907s0.74539,0.6112 1.19079,0.7956zm-2.59345,-7.38889c1.06033,-1.06033 2.49845,-1.65602 3.99795,-1.65602c1.4996,0 2.9377,0.59569 3.998,1.65602s1.656,2.49849 1.656,3.99799s-0.5957,2.9376 -1.656,3.998c-1.0603,1.0603 -2.4984,1.656 -3.998,1.656c-1.4995,0 -2.93762,-0.5957 -3.99795,-1.656c-1.06033,-1.0604 -1.65602,-2.4985 -1.65602,-3.998s0.59569,-2.93766 1.65602,-3.99799zm10.90565,-0.81363c0.2506,-0.25065 0.3914,-0.59059 0.3914,-0.94505c0,-0.35447 -0.1408,-0.69441 -0.3914,-0.94505c-0.2507,-0.25064 -0.5906,-0.39145 -0.9451,-0.39145c-0.3544,0 -0.6944,0.14081 -0.945,0.39145c-0.2507,0.25064 -0.3915,0.59058 -0.3915,0.94505c0,0.35446 0.1408,0.6944 0.3915,0.94505c0.2506,0.25064 0.5906,0.39145 0.945,0.39145c0.3545,0 0.6944,-0.14081 0.9451,-0.39145z" clip-rule="evenodd"/>
 </g>
</svg>