<svg height="64" viewBox="0 0 64 64" width="64" xmlns="http://www.w3.org/2000/svg"><g fill="none" fill-rule="evenodd"><circle cx="33" cy="33" fill="#d8d8d8" r="27"/><circle cx="33" cy="33" fill="#ececec" r="18"/><path d="m18 4v11.9913864c0 2.7661809-2.2289849 5.0086136-5.0021863 5.0086136h-1.9956274c-2.76263123 0-5.0021863-2.2399344-5.0021863-5.0086136v-11.9913864" stroke="#979797" stroke-linecap="round" stroke-width="2"/><path d="m10 21h4v36.9988612c0 1.1051984-.8877296 2.0011388-2 2.0011388-1.1045695 0-2-.8878459-2-2.0011388zm42 0h4v36.9988612c0 1.1051984-.8877296 2.0011388-2 2.0011388-1.1045695 0-2-.8878459-2-2.0011388z" fill="#979797"/><path d="m51.779245 3.98679537c.1219196-1.09727679 1.1084846-1.98679537 2.220755-1.98679537 1.1045695 0 2 .88989258 2 1.99970728v34.00029272h-8z" fill="#979797"/><path d="m12 20v-16" stroke="#979797" stroke-linecap="round" stroke-linejoin="round" stroke-width="2"/></g></svg>