<svg height="64" viewBox="0 0 64 64" width="64" xmlns="http://www.w3.org/2000/svg"><g fill="none" fill-rule="evenodd"><path d="m16 34v24" stroke="#d8d8d8" stroke-linecap="square" stroke-width="2"/><ellipse cx="16" cy="61" fill="#d8d8d8" rx="10" ry="3"/><g stroke="#d8d8d8"><path d="m5 14h22v20.9993884c0 5.5231853-4.4785457 10.0006116-10.0021973 10.0006116h-1.9956054c-5.52406101 0-10.0021973-4.4745589-10.0021973-10.0006116z" fill="#ececec" stroke-linecap="round" stroke-linejoin="round" stroke-width="2"/><path d="m27 26.7788959v8.2309664c0 5.5174007-4.4785457 9.9901377-10.0021973 9.9901377h-1.9956054c-5.52406101 0-10.0021973-4.475686-10.0021973-10.0044655v-8.2914563" fill="#e43535" stroke-linecap="round" stroke-width="2"/><ellipse cx="16" cy="14" fill="#ececec" rx="11" ry="4" stroke-linecap="round" stroke-width="2"/><ellipse cx="16" cy="27" fill="#e43535" rx="11" ry="4" stroke-linecap="round" stroke-width="2"/></g><g transform="matrix(.96592583 -.25881905 .25881905 .96592583 29.386829 7.767125)"><path d="m11 24v24" stroke="#d8d8d8" stroke-linecap="square" stroke-width="2"/><ellipse cx="11" cy="51" fill="#d8d8d8" rx="10" ry="3"/><g stroke="#d8d8d8" stroke-linecap="round" stroke-width="2"><path d="m0 4h22v20.9993884c0 5.5231853-4.4785457 10.0006116-10.0021973 10.0006116h-1.9956054c-5.52406101 0-10.0021973-4.4745589-10.0021973-10.0006116z" fill="#ececec" stroke-linejoin="round"/><path d="m22 16.7788959v8.2309664c0 5.5174007-4.4785457 9.9901377-10.0021973 9.9901377h-1.9956054c-5.52406101 0-10.0021973-4.475686-10.0021973-10.0044655v-8.2914563" fill="#e43535"/><ellipse cx="11" cy="4" fill="#ececec" rx="11" ry="4"/><ellipse cx="11" cy="17" fill="#e43535" rx="11" ry="4"/></g></g><path d="m21.3508896 7.27949799-2-2" stroke="#ffdd95" stroke-linecap="round" stroke-width="2"/><path d="m30.3508896 7.27949799-2-2" stroke="#ffdd95" stroke-linecap="round" stroke-width="2" transform="matrix(-1 0 0 1 59 0)"/><path d="m25.1054718 7v-4.63346428" stroke="#ffdd95" stroke-linecap="round" stroke-width="2"/></g></svg>