<svg height="60" viewBox="0 0 60 60" width="60" xmlns="http://www.w3.org/2000/svg"><g style="stroke:#535353;stroke-width:2;stroke-linecap:round;stroke-linejoin:round;fill:none;fill-rule:evenodd" transform="translate(5 3)"><path d="m14 41h-6c0 2.209139-1.790861 4-4 4s-4-1.790861-4-4v-3.5c0-1.9329966 1.56507705-3.5 3.49603012-3.5h43.00793978c1.9308041 0 3.4960301 1.5709366 3.4960301 3.5v3.5c0 2.209139-1.790861 4-4 4s-4-1.790861-4-4h-6c0 2.209139-1.790861 4-4 4s-4-1.790861-4-4h-6c0 2.209139-1.790861 4-4 4s-4-1.790861-4-4z"/><circle cx="18" cy="40" r="1"/><circle cx="46" cy="40" r="1"/><circle cx="32" cy="25" r="1"/><path d="m14 25h-7v-3.5c0-1.9329966 1.57002347-3.5 3.5009443-3.5h28.9981114c1.9335181 0 3.5009443 1.5709366 3.5009443 3.5v3.5h-7c0 2.209139-1.790861 4-4 4s-4-1.790861-4-4h-6c0 2.209139-1.790861 4-4 4s-4-1.790861-4-4z"/><path d="m46 46v8h-42v-8"/><path d="m40 26v8h-30v-8"/><path d="m19.8631978.24290547c-2.6440119.98960577-3.6355257 4.71768711-2.2146083 8.32690273 1.4193424 3.6052148 7.2064289 6.2407749 7.2064289 6.2407749s6.0770497-2.6355601 7.4963921-6.2407749c1.4209174-3.60921562.4294036-7.33729696-2.2146083-8.32690273-1.6641828-.62287349-3.5863733-.01240091-5.1368022 1.42556819 0 0-3.4726194-2.04844168-5.1368022-1.42556819z"/></g></svg>