<svg xmlns="http://www.w3.org/2000/svg" xmlns:xlink="http://www.w3.org/1999/xlink" viewBox="0 0 500 500"><defs><clipPath id="freepik--clip-path--inject-2"><path d="M237.33,184.84s-5.06-2.73-12.85.78S210.86,197.1,213,219.49s8.56,32.12,8.56,32.9-23,27.05-29.78,44-24.33,56.84-36.21,80.78-32.7,50.23-34.84,53.92,3.11,9.35,11.1,13.63A50.14,50.14,0,0,0,149,449.77s-7.4,11.49-6.23,13.24,26.28,8.17,40.1,3.7,14-7.2,24.91-1.17,26.67,7.59,38.94,3.7,14.79-6.81,21.8-3.7,15,7.2,22.77,4.28,13.24-8,16-9.34,12.27-.2,21.81-.78,16.93-6.42,17.91-7.79-15-45.74-31.15-83.12S256,250.05,256,250.05s-.2-9.93,2.33-13.82,6-9.93,5.26-15.18S243.56,188.15,237.33,184.84Z" style="fill:#fff;stroke:#263238;stroke-linecap:round;stroke-linejoin:round"></path></clipPath><clipPath id="freepik--clip-path-2--inject-2"><path d="M251.15,135.2s0,1.17-3.11,0-7-.58-8.37,3.31,5.25,9.54,2.53,12.26-8.37,1-5.45,5.84,8.17,4.09,6.62,11.68-6.82,7.59-3.51,9.54,9,.39,9.74,5.06.38,8.57,2.72,8.57,2.14-3.51,1-4.28,4.68-1,3.7,3.5-9.73,5.45-12.65,2.34-6.23-8.38-9.34-8.18-7.79,1-9.15-2,0-7.39,0-7.39-4.29,5.06-4.29,7.39,2.73,3.12,1.95,6.23-8.18,8-6.23,11.49,6.23,5.25,3.89,10.7-7.59,4.48-7.39,6.82,4.86,2.92,2.53,6-5.45,4.67-3.9,5.65-3.5,6.61-8.95.77,2.92-9.53.2-12.84S193,220.66,190.42,214s6.81-7.59,6.81-11.68-7.2-2.92-8.95-9,2.72-11.09,5.84-14.21,3.31-3.69-1-8.17-7-13-.58-17.33,13.82-3.31,12.85-9.34-1.56-12.46,7.39-19.66,24.73-8.57,31.73-5.84S258.74,129.17,251.15,135.2Z" style="fill:#263238;stroke:#263238;stroke-linecap:round;stroke-linejoin:round"></path></clipPath></defs><g id="freepik--background-simple--inject-2"><path d="M329.22,43.77s-73.45-21.63-146,22.12S73.73,191.21,42,256.67,27.85,386.24,82.82,413.17s92.77-18.6,170.17-24.54,98.14,3.72,162.63-41.6,76.76-145.46,26.59-216.64S329.22,43.77,329.22,43.77Z" style="fill:#92E3A9"></path><path d="M329.22,43.77s-73.45-21.63-146,22.12S73.73,191.21,42,256.67,27.85,386.24,82.82,413.17s92.77-18.6,170.17-24.54,98.14,3.72,162.63-41.6,76.76-145.46,26.59-216.64S329.22,43.77,329.22,43.77Z" style="fill:#fff;opacity:0.7000000000000001"></path></g><g id="freepik--Floor--inject-2"><ellipse cx="248" cy="446.5" rx="186" ry="36.5" style="fill:#92E3A9"></ellipse><ellipse cx="248" cy="446.5" rx="186" ry="36.5" style="fill:#fff;opacity:0.5"></ellipse></g><g id="freepik--Plants--inject-2"><path d="M351.48,368.77A134.5,134.5,0,0,0,375,355.09s-8.62,1.94-19.08,4.75c13.85-8.5,26.33-21.44,26.33-21.44s-10.44,4.24-22.71,9.87a166.81,166.81,0,0,0,17-19.13s-14.83,8.44-29.29,17.94c10.3-12.15,18.08-28.21,18.08-28.21s-13.3,11.18-25.75,23.19c8.39-14.2,13.3-33.05,13.3-33.05S343,321.3,333.55,334.74c5-15,6.29-32.54,6.29-32.54s-6.75,12.53-13.33,26.59a159.26,159.26,0,0,0,.45-30.68s-4.35,12.81-8.42,27.31a161.5,161.5,0,0,0-4.39-29.17s-3.28,19.38-4.93,37.62c-2.4-17-12.42-36.88-12.42-36.88s.62,13.07,2.07,27.75a163.1,163.1,0,0,0-14.31-24.91s2.68,13.09,6.45,27.55a162.2,162.2,0,0,0-18.32-22.75s6.83,18.15,14.52,34.65c-10.67-13.42-29-25.37-29-25.37s8,12.46,17.4,25.29C263.23,330,248,323.36,248,323.36s10.59,11.57,22.38,23C256.35,339,239.23,335,239.23,335s12.61,9.64,26.32,18.83c-15.19-4.8-33-5.76-33-5.76s11,5.63,23.9,11.49a163.64,163.64,0,0,0-27.53-.17S246,365.19,263,369.71a136.46,136.46,0,0,0-22.42,3.43s5.72,1,13.56,2.1A137.19,137.19,0,0,0,240.49,379s17.08,1.47,32.64,1.55c1.67,0,3.41,0,5.16-.06-10,2.72-20.32,8.81-20.32,8.81s13-1.48,24.68-3.78a243.38,243.38,0,0,0,25.85-7.13l0,.13.08-.15.13,0c0,.16,0,.25,0,.25l.09-.29.12,0c0,.13.06.23.08.28l.91,27.19,2.75-.09-.9-26.78c6.4,3.25,19.05,9.4,29.38,12.68,14.46,4.6,35.18,3.35,35.18,3.35s-14.26-5.35-28.66-9.65c14.33.43,30.83-3.92,30.83-3.92s-16.51-2.68-32.13-4c14.65-2.13,31.45-10.63,31.45-10.63S365.06,367.31,351.48,368.77Z" style="fill:#92E3A9"></path><path d="M234.31,299.79a135.22,135.22,0,0,0,23.51-13.68s-8.62,1.94-19.08,4.75c13.85-8.5,26.33-21.45,26.33-21.45s-10.43,4.25-22.71,9.88a167.37,167.37,0,0,0,17-19.14s-14.83,8.45-29.29,18c10.31-12.16,18.08-28.21,18.08-28.21s-13.3,11.18-25.75,23.19c8.39-14.2,13.31-33.06,13.31-33.06s-9.86,12.3-19.33,25.74c5-15,6.3-32.55,6.3-32.55s-6.76,12.54-13.34,26.6a159.26,159.26,0,0,0,.45-30.68s-4.35,12.81-8.42,27.31A161.5,161.5,0,0,0,197,227.27s-3.28,19.38-4.93,37.62c-2.4-17-12.42-36.88-12.42-36.88s.62,13.07,2.07,27.75a162.51,162.51,0,0,0-14.31-24.91s2.68,13.08,6.45,27.54a162.47,162.47,0,0,0-18.32-22.74S162.35,253.8,170,270.3c-10.67-13.42-29-25.38-29-25.38s8,12.47,17.4,25.3c-12.37-9.25-27.58-15.84-27.58-15.84s10.59,11.57,22.38,23C139.18,270,122.06,266,122.06,266s12.61,9.65,26.32,18.84c-15.19-4.8-33-5.76-33-5.76s11,5.63,23.9,11.49a163.64,163.64,0,0,0-27.53-.17s17.06,5.84,34.08,10.37a135.84,135.84,0,0,0-22.42,3.42s5.72,1,13.56,2.11A137.19,137.19,0,0,0,123.32,310s17.08,1.47,32.64,1.55c1.67,0,3.41,0,5.17-.06-10,2.72-20.33,8.81-20.33,8.81s13-1.48,24.68-3.78a243.38,243.38,0,0,0,25.85-7.13l0,.13.08-.15.13-.05c0,.16,0,.26,0,.26l.09-.29.12,0,.08.28.91,27.19,2.75-.09-.9-26.78c6.4,3.25,19,9.39,29.38,12.68,14.46,4.59,35.18,3.35,35.18,3.35s-14.26-5.35-28.66-9.65c14.33.43,30.83-3.92,30.83-3.92s-16.51-2.68-32.13-4c14.65-2.13,31.45-10.63,31.45-10.63S247.89,298.32,234.31,299.79Z" style="fill:#92E3A9"></path><path d="M192.91,371.17a62.63,62.63,0,0,0,10.93-6.37s-4,.91-8.87,2.22a72.82,72.82,0,0,0,12.24-10s-4.85,2-10.56,4.59a77.44,77.44,0,0,0,7.9-8.9s-6.89,3.93-13.62,8.35A71.64,71.64,0,0,0,199.34,348s-6.18,5.2-12,10.79a70.26,70.26,0,0,0,6.18-15.38s-4.58,5.72-9,12a72.38,72.38,0,0,0,2.93-15.13s-3.14,5.83-6.21,12.36a74.24,74.24,0,0,0,.22-14.26s-2,5.95-3.92,12.7a75.46,75.46,0,0,0-2-13.57s-1.53,9-2.29,17.5c-1.12-7.93-5.78-17.15-5.78-17.15s.28,6.08,1,12.9a75.65,75.65,0,0,0-6.65-11.58s1.24,6.08,3,12.81a75.23,75.23,0,0,0-8.51-10.58s3.17,8.44,6.75,16.11c-5-6.24-13.49-11.8-13.49-11.8s3.73,5.8,8.09,11.76a74.05,74.05,0,0,0-12.82-7.36s4.92,5.38,10.4,10.68a72.15,72.15,0,0,0-14.49-5.29s5.86,4.48,12.24,8.76a71.67,71.67,0,0,0-15.34-2.68s5.09,2.62,11.11,5.34a76.83,76.83,0,0,0-12.8-.08s7.93,2.72,15.85,4.82a63.62,63.62,0,0,0-10.43,1.6s2.66.46,6.3,1c-3.6.81-6.35,1.76-6.35,1.76s8,.69,15.18.72c.78,0,1.59,0,2.4,0a45.17,45.17,0,0,0-9.45,4.09s6.05-.69,11.48-1.75a114.22,114.22,0,0,0,12-3.32v.06l0-.07.06,0v.12l0-.14.06,0,0,.14.42,12.64,1.28,0-.42-12.46a104.32,104.32,0,0,0,13.66,5.9c6.73,2.14,16.36,1.56,16.36,1.56s-6.63-2.49-13.32-4.49A59.46,59.46,0,0,0,205.46,377s-7.67-1.25-14.94-1.88c6.81-1,14.62-4.94,14.62-4.94S199.22,370.49,192.91,371.17Z" style="fill:#92E3A9"></path></g><g id="freepik--Lantern--inject-2"><path d="M157.09,81.79V75.72h-2.53l-4.8-23.2H140l.35-3.67h4l-2.22-6.07h-3.59V37.52h3.2v-3h-1.92L137.75,24a2.22,2.22,0,1,0-.87,0L134.8,34.57h-1.91v3h3.19v5.26H132.5l-2.23,6.07h4l.35,3.67h-9.79l-4.8,23.2h-2.53v6.07h1.52l4.69,37.53v5.12a7.39,7.39,0,0,0,7.37,7.38h1v8.05h-1.28l-3,3.1h-.42l.21.22-.21.21h.42l3,3.11h2.51v3.13h-2.21v12.54h3.2V378.92h-3.2v44h12.29v-44H140V162.18h3.44V149.64h-2.21v-3.13h2.51l3-3.11h.42l-.21-.21.21-.22h-.42l-3-3.1h-1.28v-8.05h1a7.39,7.39,0,0,0,7.38-7.38v-5.11l4.69-37.54Zm-26,47.08a4.43,4.43,0,0,1-4.42-4.43v-2.71h5.45v7.14h-1Zm10.62-10.09h-8.85V109h8.85Zm6.19,5.66a4.44,4.44,0,0,1-4.43,4.43h-1v-7.14h5.45Zm0-5.66h-5.49V108.21H132.15v10.57h-5.5l-4.61-37h30.55Z" style="fill:#263238"></path></g><g id="freepik--Characters--inject-2"><polygon points="317.73 301.64 315.2 378.33 278.6 310.39 317.73 301.64" style="fill:#263238;stroke:#263238;stroke-linecap:round;stroke-linejoin:round"></polygon><path d="M305.46,159.34a89.7,89.7,0,0,0,12.27,7.4c5.84,2.72,15.57,8.17,15.57,10.12s-11.68,65.4-11.68,65.4l10.9,62.3s-21.22,7-28,7.78-30.37,3.12-47.3,1.56S236,307.48,236,307.48l15.18-72.22-4.67-52.76s33.48-18.1,34.07-18.88S297.29,156.22,305.46,159.34Z" style="fill:#263238;stroke:#263238;stroke-linecap:round;stroke-linejoin:round"></path><path d="M302.93,189.9l7.79-4.09v-23c-3-1.89-5.26-3.51-5.26-3.51-8.17-3.12-24.33,3.5-24.91,4.28-.18.24-3.37,2.06-7.73,4.48L264,184.64l4.48,4.29-6.82,5.64s2.34,12.85,3.51,22.78,4.67,24.33,4.67,24.33,22.39-19.66,28-26.47,12.26-22.39,12.26-22.39Z" style="fill:#263238;stroke:#263238;stroke-linecap:round;stroke-linejoin:round"></path><path d="M311,167.27l-.24,18.54-7.79,4.09,6.11,2.58s-2.61,13.11-11.17,22.73" style="fill:none;stroke:#595959;stroke-linecap:round;stroke-linejoin:round"></path><path d="M271.5,171.93,264,184.64l4.48,4.29-6.82,5.64s3,17.92,4.63,27.24" style="fill:none;stroke:#595959;stroke-linecap:round;stroke-linejoin:round"></path><path d="M278.6,166.74s-2.14,1.75-2.92,8.37-6.23,37.37-6.42,47.88a182.46,182.46,0,0,0,.58,18.69s10.51-11.29,19.66-30.76,16-51.58,16-51.58l-5.25-3.51S281.13,162.45,278.6,166.74Z" style="fill:#fff;stroke:#263238;stroke-linecap:round;stroke-linejoin:round"></path><polygon points="281.13 178.03 272.37 174.72 271.01 186.4 280.16 181.14 288.92 189.32 289.89 174.72 281.13 178.03" style="fill:#263238;stroke:#263238;stroke-linecap:round;stroke-linejoin:round"></polygon><path d="M257,125.08s-.58,10.9.39,13.43,2.14,5.26,2.14,7.2-2.92,7.79-2.14,8.57a40,40,0,0,0,4.67,2.92s6.23,12.46,7.4,12.65,8.57-2.34,8.57-2.34,1.36,6.82,1.94,6.43a66.48,66.48,0,0,0,13-8.76c7.79-6.43,7.21-9.35,7.21-9.35l-1.56-8.17S302,124.49,300.21,119s-8.57-9-15-10.9-21-.58-28,5.26S252.9,123.72,257,125.08Z" style="fill:#d9d9d9;stroke:#263238;stroke-linecap:round;stroke-linejoin:round"></path><path d="M260.69,139.29s.58-3.89,5.65-1.95" style="fill:none;stroke:#263238;stroke-linecap:round;stroke-linejoin:round"></path><path d="M262.64,141.82l.58,2.92s2.92.19,4.09-2" style="fill:none;stroke:#263238;stroke-linecap:round;stroke-linejoin:round"></path><path d="M265.56,158s2.14,1.16,5.06-1.56" style="fill:none;stroke:#263238;stroke-linecap:round;stroke-linejoin:round"></path><path d="M292.62,145.71a5,5,0,0,1-2.34,2.53,8.63,8.63,0,0,1-4.48,1,13.17,13.17,0,0,1-.78,5.84" style="fill:none;stroke:#263238;stroke-linecap:round;stroke-linejoin:round"></path><path d="M298.65,147.66S302,124.49,300.21,119s-8.57-9-15-10.9-21-.58-28,5.26-4.29,10.32-.2,11.68a13.75,13.75,0,0,0,6.43-1c2.92-1.37,5.84-4.48,8.56-2.73s1.75,8.37,1.95,10.9S277.63,135,279,137s0,3.9,1.56,4.67a2.8,2.8,0,0,0,3.69-1.75c.2-1.17-.19-3.5,1.76-5.45s5.84,1.17,6.23,5.84.39,5.45.39,5.45a48.19,48.19,0,0,0,6.25,3.1Z" style="fill:#525252;stroke:#263238;stroke-linecap:round;stroke-linejoin:round"></path><path d="M300.55,129.36c.26-4.43.26-8.43-.34-10.32-1.76-5.45-8.57-9-15-10.9s-21-.58-28,5.26-4.29,10.32-.2,11.68a13.75,13.75,0,0,0,6.43-1c2.92-1.37,5.84-4.48,8.56-2.73a38.68,38.68,0,0,1,11.68,4.09C288,127.94,293.56,131.52,300.55,129.36Z" style="fill:#263238;stroke:#263238;stroke-linecap:round;stroke-linejoin:round"></path><path d="M328.24,172.58s9.73,4.28,12.07,5.45,3.89,4.28,8.76,18.29,13,39.52,11.68,44.78-45.16,42.82-45.16,42.82L307,273.6l24.53-31.34a2.65,2.65,0,0,1-.2-2.53,33.21,33.21,0,0,1,2.53-4.47s-14-29.2-14.6-31.73-.58-6,1.17-11.1" style="fill:#263238;stroke:#263238;stroke-linecap:round;stroke-linejoin:round"></path><path d="M324.66,215.78l-7.4-15.62a21.3,21.3,0,0,1,10.42-14.53" style="fill:none;stroke:#595959;stroke-linecap:round;stroke-linejoin:round"></path><path d="M244.34,169.27c0,.87-4.87,11.87-5.26,15.18s-19.27,7.79-19.27,7.79-.19-7.6-.19-14-.59-14.4,6-17.13S244.14,165.57,244.34,169.27Z" style="fill:#d9d9d9;stroke:#263238;stroke-linecap:round;stroke-linejoin:round"></path><path d="M250,133.25a12.71,12.71,0,0,1,3.31,7.79c.2,4.67,1.37,9.54,2.34,11.1s3.31,2.14,2.53,4.28-3.5,3.31-3.5,3.31S253.1,171.8,251.93,173s-14.4-1.17-16.74-1.76-8.95-10.31-9.34-18.68,3.89-19.28,11.09-21.81S250,133.25,250,133.25Z" style="fill:#d9d9d9;stroke:#263238;stroke-linecap:round;stroke-linejoin:round"></path><path d="M251.15,143.18a2.91,2.91,0,0,0-4.09,1" style="fill:none;stroke:#263238;stroke-linecap:round;stroke-linejoin:round"></path><path d="M251.74,147.46l.39,3.51a8.49,8.49,0,0,1-3.7.19" style="fill:none;stroke:#263238;stroke-linecap:round;stroke-linejoin:round"></path><path d="M209.11,233.89s-2.53,4.48-2.34,9,.58,7.78,1.56,9,9.15,2.92,11.68,1.75,4.28-5.06,2.92-10.31-10.52-10.9-10.52-10.9Z" style="fill:#263238;stroke:#263238;stroke-linecap:round;stroke-linejoin:round"></path><path d="M237.33,184.84s-5.06-2.73-12.85.78S210.86,197.1,213,219.49s8.56,32.12,8.56,32.9-23,27.05-29.78,44-24.33,56.84-36.21,80.78-32.7,50.23-34.84,53.92,3.11,9.35,11.1,13.63A50.14,50.14,0,0,0,149,449.77s-7.4,11.49-6.23,13.24,26.28,8.17,40.1,3.7,14-7.2,24.91-1.17,26.67,7.59,38.94,3.7,14.79-6.81,21.8-3.7,15,7.2,22.77,4.28,13.24-8,16-9.34,12.27-.2,21.81-.78,16.93-6.42,17.91-7.79-15-45.74-31.15-83.12S256,250.05,256,250.05s-.2-9.93,2.33-13.82,6-9.93,5.26-15.18S243.56,188.15,237.33,184.84Z" style="fill:#fff"></path><g style="clip-path:url(#freepik--clip-path--inject-2)"><path d="M233.45,316.34C230.18,340.5,208,449.51,206.68,460c-.21,1.73-.45,3.26-.69,4.64-9.21-4.78-10.13-2.12-23.16,2.11a28.44,28.44,0,0,1-4.58,1c7.05-19.54,25.08-71.86,32.35-115.5,9.14-54.84-1.3-37.21-15-2s-25.46,69.19-33.3,82.25a78.76,78.76,0,0,1-14.06,17.15,49.69,49.69,0,0,1-16.4-5c-8-4.28-13.24-9.93-11.1-13.63s23-30,34.84-53.92,29.4-63.84,36.21-80.78,29.78-43.21,29.78-44-6.42-10.52-8.56-32.9,3.7-30.37,11.48-33.87a17.94,17.94,0,0,1,9.3-1.71l1,4.49a115.35,115.35,0,0,0-1.3,40.47c3.26,22.19,8.48,30,8.48,30L257.61,253l.95,1.8c-3.36,3-8,7.23-11.4,10.61C241.28,271.3,236.71,292.19,233.45,316.34Zm61.36,29.38s5.88,30,5.88,38.51c0,6.77,4.14,56.67,5.83,76.64.24-.15.48-.28.69-.39,2.73-1.36,12.27-.2,21.81-.78a26.71,26.71,0,0,0,5.34-.89Zm-33.29,9.14c-4-5.7-4.5,87-4.56,110.73,4.44-1.57,7.09-2,11.52,0l1.17.53C268.59,438.47,265.28,360.23,261.52,354.86Z" style="fill:#92E3A9"></path><path d="M233.45,316.34C230.18,340.5,208,449.51,206.68,460c-.21,1.73-.45,3.26-.69,4.64-9.21-4.78-10.13-2.12-23.16,2.11a28.44,28.44,0,0,1-4.58,1c7.05-19.54,25.08-71.86,32.35-115.5,9.14-54.84-1.3-37.21-15-2s-25.46,69.19-33.3,82.25a78.76,78.76,0,0,1-14.06,17.15,49.69,49.69,0,0,1-16.4-5c-8-4.28-13.24-9.93-11.1-13.63s23-30,34.84-53.92,29.4-63.84,36.21-80.78,29.78-43.21,29.78-44-6.42-10.52-8.56-32.9,3.7-30.37,11.48-33.87a17.94,17.94,0,0,1,9.3-1.71l1,4.49a115.35,115.35,0,0,0-1.3,40.47c3.26,22.19,8.48,30,8.48,30L257.61,253l.95,1.8c-3.36,3-8,7.23-11.4,10.61C241.28,271.3,236.71,292.19,233.45,316.34Zm61.36,29.38s5.88,30,5.88,38.51c0,6.77,4.14,56.67,5.83,76.64.24-.15.48-.28.69-.39,2.73-1.36,12.27-.2,21.81-.78a26.71,26.71,0,0,0,5.34-.89Zm-33.29,9.14c-4-5.7-4.5,87-4.56,110.73,4.44-1.57,7.09-2,11.52,0l1.17.53C268.59,438.47,265.28,360.23,261.52,354.86Z" style="fill:#fff;opacity:0.5"></path></g><path d="M237.33,184.84s-5.06-2.73-12.85.78S210.86,197.1,213,219.49s8.56,32.12,8.56,32.9-23,27.05-29.78,44-24.33,56.84-36.21,80.78-32.7,50.23-34.84,53.92,3.11,9.35,11.1,13.63A50.14,50.14,0,0,0,149,449.77s-7.4,11.49-6.23,13.24,26.28,8.17,40.1,3.7,14-7.2,24.91-1.17,26.67,7.59,38.94,3.7,14.79-6.81,21.8-3.7,15,7.2,22.77,4.28,13.24-8,16-9.34,12.27-.2,21.81-.78,16.93-6.42,17.91-7.79-15-45.74-31.15-83.12S256,250.05,256,250.05s-.2-9.93,2.33-13.82,6-9.93,5.26-15.18S243.56,188.15,237.33,184.84Z" style="fill:none;stroke:#263238;stroke-linecap:round;stroke-linejoin:round"></path><path d="M149,449.77s31-41.31,41.07-92.85,26.48-77.16,26.48-77.16" style="fill:none;stroke:#263238;stroke-linecap:round;stroke-linejoin:round"></path><path d="M226.59,308.84s-6.33,31.1-9.5,61.9-16.7,78.89-16.7,78.89" style="fill:none;stroke:#263238;stroke-linecap:round;stroke-linejoin:round"></path><path d="M306.92,456.25s-1.73-14.11-5.76-60.17-10.94-58.73-10.94-58.73" style="fill:none;stroke:#263238;stroke-linecap:round;stroke-linejoin:round"></path><path d="M209.3,230.39s-2.14,8-.58,11.68,9.15,5.45,10.51,2.14-1.56-7.79-3.31-9.34S212,227.86,209.3,230.39Z" style="fill:#fff;stroke:#263238;stroke-linecap:round;stroke-linejoin:round"></path><path d="M210.27,235.26s-1.36-10.9-1.36-12.27,6.42-10.12,7.59-11.29,1.56.59,1,2-3.51,8.56-3.51,8.56v1.95s3.31-5.64,5.45-8.56,3.12-.59,2.14,1.16a91.11,91.11,0,0,0-4.28,9.93c0,.59-.19,2.34-.19,2.34s6-3.51,7.2-3.9,2.34,1.37,1.36,2.15-7.2,5.84-7.2,5.84L227,231c.78-.19.39,1.95-1.16,2.53s-5.45,1.95-6,2.53-.19,3.9-2.14,5.46S211.64,241.1,210.27,235.26Z" style="fill:#d9d9d9;stroke:#263238;stroke-linecap:round;stroke-linejoin:round"></path><path d="M251.15,135.2s0,1.17-3.11,0-7-.58-8.37,3.31,5.25,9.54,2.53,12.26-8.37,1-5.45,5.84,8.17,4.09,6.62,11.68-6.82,7.59-3.51,9.54,9,.39,9.74,5.06.38,8.57,2.72,8.57,2.14-3.51,1-4.28,4.68-1,3.7,3.5-9.73,5.45-12.65,2.34-6.23-8.38-9.34-8.18-7.79,1-9.15-2,0-7.39,0-7.39-4.29,5.06-4.29,7.39,2.73,3.12,1.95,6.23-8.18,8-6.23,11.49,6.23,5.25,3.89,10.7-7.59,4.48-7.39,6.82,4.86,2.92,2.53,6-5.45,4.67-3.9,5.65-3.5,6.61-8.95.77,2.92-9.53.2-12.84S193,220.66,190.42,214s6.81-7.59,6.81-11.68-7.2-2.92-8.95-9,2.72-11.09,5.84-14.21,3.31-3.69-1-8.17-7-13-.58-17.33,13.82-3.31,12.85-9.34-1.56-12.46,7.39-19.66,24.73-8.57,31.73-5.84S258.74,129.17,251.15,135.2Z" style="fill:#263238"></path><g style="clip-path:url(#freepik--clip-path-2--inject-2)"><path d="M248.13,124.9c-4.4-2.62-12.08-2-19.77,5.45-9.74,9.44,2.44,13.7-2.43,20.09s-12.48,8.82-11.26,14,10,6.69,2.73,14-11.56,11.26-10.65,16.43,9.13,3,6.09,9.44-10.65,10.34-7.61,13.69,9.13-.91,4,6.39-5.44,5.3,1.08,10.87" style="fill:none;stroke:#595959;stroke-linecap:round;stroke-linejoin:round"></path><path d="M248,135.2s4.05-1.66,3.69-5.18" style="fill:none;stroke:#595959;stroke-linecap:round;stroke-linejoin:round"></path><path d="M199.21,197.33c.89.68,1.84,1.35,2.67,2.11,3.35,3,1.22,5.47-3.95,10.65s-3.35,7.3.3,8.82" style="fill:none;stroke:#595959;stroke-linecap:round;stroke-linejoin:round"></path><path d="M251.49,122.13s-13.09-6.69-26.17.92-14,17-10,21.61-2.13,5.78-8.21,11.86-5.48,15.83-.31,18.87-4.87,6.09-9.13,12.79a8.18,8.18,0,0,0-1.6,4.56" style="fill:none;stroke:#595959;stroke-linecap:round;stroke-linejoin:round"></path><path d="M217.71,118.48s-14,10.65-12.17,16.74,5.17,9.13-.31,14.61-20.08,9.43-13.08,17.35,8.82,8.21,3.65,12.17-10.05,5.48-8.83,11.87" style="fill:none;stroke:#595959;stroke-linecap:round;stroke-linejoin:round"></path></g><path d="M251.15,135.2s0,1.17-3.11,0-7-.58-8.37,3.31,5.25,9.54,2.53,12.26-8.37,1-5.45,5.84,8.17,4.09,6.62,11.68-6.82,7.59-3.51,9.54,9,.39,9.74,5.06.38,8.57,2.72,8.57,2.14-3.51,1-4.28,4.68-1,3.7,3.5-9.73,5.45-12.65,2.34-6.23-8.38-9.34-8.18-7.79,1-9.15-2,0-7.39,0-7.39-4.29,5.06-4.29,7.39,2.73,3.12,1.95,6.23-8.18,8-6.23,11.49,6.23,5.25,3.89,10.7-7.59,4.48-7.39,6.82,4.86,2.92,2.53,6-5.45,4.67-3.9,5.65-3.5,6.61-8.95.77,2.92-9.53.2-12.84S193,220.66,190.42,214s6.81-7.59,6.81-11.68-7.2-2.92-8.95-9,2.72-11.09,5.84-14.21,3.31-3.69-1-8.17-7-13-.58-17.33,13.82-3.31,12.85-9.34-1.56-12.46,7.39-19.66,24.73-8.57,31.73-5.84S258.74,129.17,251.15,135.2Z" style="fill:none;stroke:#263238;stroke-linecap:round;stroke-linejoin:round"></path><path d="M234.22,183.67s-9.15,1.36-8.57,13.63,10.9,65.6,14.41,66.38,50.41-41.08,51.19-41.08,4.87-1.94,5.45-3.7,2.53-7.39,3.12-8,6.42-7.39,5.64-8.17a.84.84,0,0,0-1.36,0l-6,6.42s-1.76,0,0-2.14,6.81-8.76,6.81-9.54-2.92.78-2.92.78.58-2.14-.78-1.36a28,28,0,0,1-3.5,1.56s-1.17-.2-2.34,1.55-7.4,8.37-7.4,8.37-3.7,10.32-4.08,11.1-5.07,3.5-12.85,7.4S249.4,236,249.4,236s-1.56-24.72-2.34-35.23S241,181.72,234.22,183.67Z" style="fill:#d9d9d9;stroke:#263238;stroke-linecap:round;stroke-linejoin:round"></path><path d="M302,198.27s-7,8-8,9.93" style="fill:none;stroke:#263238;stroke-linecap:round;stroke-linejoin:round"></path><path d="M297.68,198.47s-6,8.76-7,9.73" style="fill:none;stroke:#263238;stroke-linecap:round;stroke-linejoin:round"></path><path d="M257.89,284.94s3.76,1,10.6-4.07C268.49,280.87,262.68,278.92,257.89,284.94Z" style="fill:#92E3A9"></path><path d="M255.25,289.08s3.76,1,10.6-4.06C265.85,285,260,283.07,255.25,289.08Z" style="fill:#92E3A9"></path><path d="M254.78,295.75s3.89,0,9.13-6.75C263.91,289,257.79,288.68,254.78,295.75Z" style="fill:#92E3A9"></path><path d="M269,298.57s.9-3.79-4.41-10.46C264.55,288.11,262.79,294,269,298.57Z" style="fill:#92E3A9"></path><path d="M272.72,290.05s.89-3.78-4.42-10.45C268.3,279.6,266.55,285.46,272.72,290.05Z" style="fill:#fff;stroke:#263238;stroke-linecap:round;stroke-linejoin:round"></path><path d="M270.65,293.5s.89-3.79-4.42-10.46C266.23,283,264.48,288.91,270.65,293.5Z" style="fill:#92E3A9"></path><path d="M268.92,259.61s-.89,3.79,4.42,10.46C273.34,270.07,275.1,264.2,268.92,259.61Z" style="fill:#92E3A9"></path><path d="M264.69,257.11s-.89,3.79,4.42,10.46C269.11,267.57,270.87,261.7,264.69,257.11Z" style="fill:#92E3A9"></path><path d="M258,256.86s.15,3.89,7.06,8.9C265.07,265.76,265.19,259.63,258,256.86Z" style="fill:#92E3A9"></path><path d="M255.68,271.13s3.81.77,10.3-4.76C266,266.37,260.06,264.81,255.68,271.13Z" style="fill:#92E3A9"></path><path d="M264.31,274.6s3.82.77,10.3-4.77C274.61,269.83,268.69,268.28,264.31,274.6Z" style="fill:#fff;stroke:#263238;stroke-linecap:round;stroke-linejoin:round"></path><path d="M260.8,272.65s3.81.76,10.3-4.77C271.1,267.88,265.18,266.32,260.8,272.65Z" style="fill:#92E3A9"></path><path d="M312.44,296.54s.17-3.89-6.31-9.44C306.13,287.1,305.52,293.2,312.44,296.54Z" style="fill:#fff;stroke:#263238;stroke-linecap:round;stroke-linejoin:round"></path><path d="M317.07,298.2s.16-3.89-6.31-9.44C310.76,288.76,310.14,294.86,317.07,298.2Z" style="fill:#92E3A9"></path><path d="M323.68,297.19s-.88-3.79-8.61-7.41C315.07,289.78,316.11,295.82,323.68,297.19Z" style="fill:#92E3A9"></path><path d="M323.29,282.73s-3.89,0-9.23,6.62C314.06,289.35,320.17,289.76,323.29,282.73Z" style="fill:#92E3A9"></path><path d="M314.16,281s-3.9,0-9.23,6.62C304.93,287.57,311,288,314.16,281Z" style="fill:#92E3A9"></path><path d="M318,282.21s-3.9,0-9.23,6.62C308.75,288.83,314.86,289.24,318,282.21Z" style="fill:#92E3A9"></path><path d="M310.78,282.36s.25-5.86-9.5-14.23C301.28,268.13,300.35,277.32,310.78,282.36Z" style="fill:#92E3A9"></path><path d="M317.75,284.86s.25-5.86-9.5-14.22C308.25,270.64,307.32,279.82,317.75,284.86Z" style="fill:#92E3A9"></path><path d="M327.71,283.34s-1.32-5.72-13-11.17C314.75,272.17,316.31,281.27,327.71,283.34Z" style="fill:#92E3A9"></path><path d="M327.13,261.55s-5.87-.06-13.91,10C313.22,271.52,322.44,272.15,327.13,261.55Z" style="fill:#92E3A9"></path><path d="M313.37,258.87s-5.87-.06-13.91,10C299.46,268.84,308.68,269.47,313.37,258.87Z" style="fill:#92E3A9"></path><path d="M319.12,260.76s-5.86-.05-13.9,10C305.22,270.73,314.43,271.36,319.12,260.76Z" style="fill:#92E3A9"></path><path d="M292.39,308.64s4.64-3.59,4.73-16.44C297.12,292.2,289.5,297.42,292.39,308.64Z" style="fill:#92E3A9"></path><path d="M295,315.58s4.64-3.59,4.73-16.44C299.71,299.14,292.09,304.36,295,315.58Z" style="fill:#92E3A9"></path><path d="M302.58,322.2s3.51-4.7.16-17.11C302.74,305.09,296.8,312.16,302.58,322.2Z" style="fill:#92E3A9"></path><path d="M318.84,307.69s-3.75-4.52-16.59-4.18C302.25,303.51,307.72,311,318.84,307.69Z" style="fill:#92E3A9"></path><path d="M312,295.45s-3.74-4.52-16.59-4.18C295.41,291.27,300.88,298.71,312,295.45Z" style="fill:#fff;stroke:#263238;stroke-linecap:round;stroke-linejoin:round"></path><path d="M314.27,301.07s-3.74-4.52-16.59-4.18C297.68,296.89,303.15,304.32,314.27,301.07Z" style="fill:#92E3A9"></path><path d="M270.21,295.05s5.78,1,15.29-7.68C285.5,287.37,276.49,285.32,270.21,295.05Z" style="fill:#92E3A9"></path><path d="M266.86,301.66s5.79,1,15.29-7.68C282.15,294,273.15,291.92,266.86,301.66Z" style="fill:#92E3A9"></path><path d="M267.15,311.73s5.84-.61,12.68-11.49C279.83,300.24,270.61,300.67,267.15,311.73Z" style="fill:#92E3A9"></path><path d="M288.84,313.84s.78-5.82-8.18-15C280.66,298.81,278.91,307.87,288.84,313.84Z" style="fill:#92E3A9"></path><path d="M293.2,300.51s.78-5.81-8.18-15C285,285.48,283.26,294.55,293.2,300.51Z" style="fill:#fff;stroke:#263238;stroke-linecap:round;stroke-linejoin:round"></path><path d="M290.61,306s.78-5.82-8.18-15C282.43,291,280.67,300,290.61,306Z" style="fill:#92E3A9"></path><path d="M263.61,269.6s-2.14.79-1.81,2.07-.5,1.75-1.16,2.23-1.15,2.39-1.15,2.39.82.95.17,1.43a6,6,0,0,0-1.65,2.7c0,.48,1.15.64,1.32,1.28s-.5,1.27,0,2.23,2.47.95,2.63,1.43,0,1.75,1.48,2.39a3.73,3.73,0,0,0,3-.16,3.73,3.73,0,0,0,1.64,1.11c.82.16,1.65-1.43,2.14-1.43a8.79,8.79,0,0,1,2.14,0c1.32.16,1.48-.8,1.81-1.43s1.81-.32,2.31-1.44-.5-3.66-.5-3.66a4.47,4.47,0,0,1,1-1.75c.82-.95-.49-2.7-.49-2.7a1.87,1.87,0,0,1-.83-1.6,1.39,1.39,0,0,0-1.81-1.43c-.82.32-1.64-1.91-1.64-1.91s-1.32-1.43-2.31-.8a1.47,1.47,0,0,1-1.81-.16s-.66-1.43-1.48-.63l-.82.79S264.92,268.8,263.61,269.6Z" style="fill:#fff;stroke:#263238;stroke-linecap:round;stroke-linejoin:round"></path><path d="M270.52,279.24a2.55,2.55,0,1,1-2.55-2.56A2.55,2.55,0,0,1,270.52,279.24Z" style="fill:#92E3A9;stroke:#263238;stroke-linecap:round;stroke-linejoin:round"></path><line x1="267.39" y1="276.52" x2="266.73" y2="272.24" style="fill:none;stroke:#263238;stroke-linecap:round;stroke-linejoin:round"></line><line x1="269.7" y1="277.51" x2="271.51" y2="274.38" style="fill:none;stroke:#263238;stroke-linecap:round;stroke-linejoin:round"></line><line x1="270.52" y1="280.64" x2="273.98" y2="283.43" style="fill:none;stroke:#263238;stroke-linecap:round;stroke-linejoin:round"></line><line x1="266.08" y1="281.13" x2="264.1" y2="285.08" style="fill:none;stroke:#263238;stroke-linecap:round;stroke-linejoin:round"></line><line x1="265.75" y1="278.33" x2="261.96" y2="276.85" style="fill:none;stroke:#263238;stroke-linecap:round;stroke-linejoin:round"></line><line x1="267.97" y1="281.79" x2="268.55" y2="285.25" style="fill:none;stroke:#263238;stroke-linecap:round;stroke-linejoin:round"></line><line x1="266.57" y1="277.01" x2="264.26" y2="272.73" style="fill:none;stroke:#263238;stroke-linecap:round;stroke-linejoin:round"></line><line x1="265.58" y1="280.31" x2="262.12" y2="281.29" style="fill:none;stroke:#263238;stroke-linecap:round;stroke-linejoin:round"></line><line x1="270.52" y1="279.24" x2="273.65" y2="278.83" style="fill:none;stroke:#263238;stroke-linecap:round;stroke-linejoin:round"></line><line x1="269.37" y1="281.62" x2="270.52" y2="284.09" style="fill:none;stroke:#263238;stroke-linecap:round;stroke-linejoin:round"></line><path d="M281.1,284.9s-2.14.8-1.81,2.07-.5,1.76-1.15,2.23a6,6,0,0,0-1.16,2.39s.83,1,.17,1.43a6,6,0,0,0-1.65,2.71c0,.48,1.15.64,1.32,1.27s-.5,1.28,0,2.23,2.47,1,2.63,1.44,0,1.75,1.48,2.38a3.74,3.74,0,0,0,3-.15,3.73,3.73,0,0,0,1.64,1.11c.83.16,1.65-1.43,2.14-1.43a8.81,8.81,0,0,1,2.14,0c1.32.16,1.49-.8,1.82-1.44s1.81-.31,2.3-1.43-.49-3.66-.49-3.66a4.28,4.28,0,0,1,1-1.75c.83-1-.49-2.71-.49-2.71a1.87,1.87,0,0,1-.82-1.59,1.39,1.39,0,0,0-1.81-1.43c-.83.31-1.65-1.91-1.65-1.91s-1.32-1.44-2.3-.8a1.49,1.49,0,0,1-1.82-.16s-.65-1.43-1.48-.64l-.82.8S282.42,284.11,281.1,284.9Z" style="fill:#fff;stroke:#263238;stroke-linecap:round;stroke-linejoin:round"></path><path d="M288,294.54a2.55,2.55,0,1,1-2.55-2.55A2.55,2.55,0,0,1,288,294.54Z" style="fill:#92E3A9;stroke:#263238;stroke-linecap:round;stroke-linejoin:round"></path><line x1="284.89" y1="291.83" x2="284.23" y2="287.55" style="fill:none;stroke:#263238;stroke-linecap:round;stroke-linejoin:round"></line><line x1="287.19" y1="292.81" x2="289" y2="289.69" style="fill:none;stroke:#263238;stroke-linecap:round;stroke-linejoin:round"></line><line x1="288.01" y1="295.94" x2="291.47" y2="298.74" style="fill:none;stroke:#263238;stroke-linecap:round;stroke-linejoin:round"></line><line x1="283.57" y1="296.44" x2="281.59" y2="300.39" style="fill:none;stroke:#263238;stroke-linecap:round;stroke-linejoin:round"></line><line x1="283.24" y1="293.64" x2="279.45" y2="292.16" style="fill:none;stroke:#263238;stroke-linecap:round;stroke-linejoin:round"></line><line x1="285.46" y1="297.09" x2="286.04" y2="300.55" style="fill:none;stroke:#263238;stroke-linecap:round;stroke-linejoin:round"></line><line x1="284.06" y1="292.32" x2="281.76" y2="288.04" style="fill:none;stroke:#263238;stroke-linecap:round;stroke-linejoin:round"></line><line x1="283.07" y1="295.61" x2="279.62" y2="296.6" style="fill:none;stroke:#263238;stroke-linecap:round;stroke-linejoin:round"></line><line x1="288.01" y1="294.54" x2="291.14" y2="294.13" style="fill:none;stroke:#263238;stroke-linecap:round;stroke-linejoin:round"></line><line x1="286.86" y1="296.93" x2="288.01" y2="299.4" style="fill:none;stroke:#263238;stroke-linecap:round;stroke-linejoin:round"></line><path d="M283.51,249.48s-3.06,2.4-3.06,10.93C280.45,260.41,285.48,256.91,283.51,249.48Z" style="fill:#92E3A9"></path><path d="M281.76,244.88s-3.06,2.41-3.06,10.94C278.7,255.82,283.73,252.32,281.76,244.88Z" style="fill:#92E3A9"></path><path d="M276.69,240.53s-2.31,3.13,0,11.35C276.66,251.88,280.57,247.16,276.69,240.53Z" style="fill:#92E3A9"></path><path d="M266,250.23s2.5,3,11,2.7C277,252.93,273.33,248,266,250.23Z" style="fill:#92E3A9"></path><path d="M270.56,258.32s2.51,3,11,2.7C281.59,261,277.93,256.11,270.56,258.32Z" style="fill:#92E3A9"></path><path d="M269,254.6s2.51,3,11,2.7C280.06,257.3,276.4,252.39,269,254.6Z" style="fill:#92E3A9"></path><path d="M269,287.34s3.76,1,10.6-4.06C279.64,283.28,273.83,281.33,269,287.34Z" style="fill:#92E3A9"></path><path d="M266.4,291.49s3.76,1,10.6-4.07C277,287.42,271.19,285.47,266.4,291.49Z" style="fill:#92E3A9"></path><path d="M265.93,298.16s3.89,0,9.13-6.75C275.06,291.41,268.94,291.08,265.93,298.16Z" style="fill:#92E3A9"></path><path d="M280.11,301s.9-3.79-4.41-10.46C275.7,290.51,273.94,296.38,280.11,301Z" style="fill:#92E3A9"></path><path d="M283.87,292.46s.89-3.79-4.42-10.46C279.45,282,277.7,287.87,283.87,292.46Z" style="fill:#92E3A9"></path><path d="M281.8,295.91s.89-3.79-4.42-10.46C277.38,285.45,275.63,291.32,281.8,295.91Z" style="fill:#92E3A9"></path><path d="M298.67,258.46s-3.89-.19-9.48,6.24C289.19,264.7,295.28,265.36,298.67,258.46Z" style="fill:#fff;stroke:#263238;stroke-linecap:round;stroke-linejoin:round"></path><path d="M300.37,253.85s-3.89-.19-9.49,6.24C290.88,260.09,297,260.75,300.37,253.85Z" style="fill:#92E3A9"></path><path d="M299.4,247.23s-3.8.86-7.47,8.55C291.93,255.78,298,254.79,299.4,247.23Z" style="fill:#92E3A9"></path><path d="M284.94,247.52s-.07,3.89,6.55,9.27C291.49,256.79,292,250.68,284.94,247.52Z" style="fill:#92E3A9"></path><path d="M283.1,256.64s-.07,3.89,6.55,9.27C289.65,265.91,290.11,259.8,283.1,256.64Z" style="fill:#92E3A9"></path><path d="M284.38,252.83s-.07,3.89,6.55,9.27C290.93,262.1,291.39,256,284.38,252.83Z" style="fill:#92E3A9"></path><path d="M277.83,259.52s-2.85,1.06-2.41,2.75-.65,2.33-1.53,3-1.53,3.18-1.53,3.18,1.09,1.26.22,1.9a7.94,7.94,0,0,0-2.19,3.59c0,.64,1.53.85,1.75,1.7s-.65,1.69,0,3,3.28,1.26,3.5,1.9,0,2.32,2,3.17a4.92,4.92,0,0,0,3.93-.21,5,5,0,0,0,2.19,1.48c1.09.21,2.19-1.9,2.84-1.9a11.34,11.34,0,0,1,2.85,0c1.75.21,2-1.06,2.4-1.91s2.41-.42,3.06-1.9-.65-4.86-.65-4.86a5.67,5.67,0,0,1,1.31-2.33c1.09-1.27-.66-3.59-.66-3.59a2.5,2.5,0,0,1-1.09-2.12,1.85,1.85,0,0,0-2.41-1.9c-1.09.42-2.18-2.54-2.18-2.54s-1.75-1.9-3.06-1.06a2,2,0,0,1-2.41-.21s-.87-1.9-2-.84l-1.09,1.05S279.58,258.47,277.83,259.52Z" style="fill:#fff;stroke:#263238;stroke-linecap:round;stroke-linejoin:round"></path><circle cx="283.62" cy="272.33" r="3.39" style="fill:#92E3A9;stroke:#263238;stroke-linecap:round;stroke-linejoin:round"></circle><line x1="282.86" y1="268.72" x2="281.98" y2="263.03" style="fill:none;stroke:#263238;stroke-linecap:round;stroke-linejoin:round"></line><line x1="285.92" y1="270.03" x2="288.32" y2="265.88" style="fill:none;stroke:#263238;stroke-linecap:round;stroke-linejoin:round"></line><line x1="287.01" y1="274.18" x2="291.6" y2="277.9" style="fill:none;stroke:#263238;stroke-linecap:round;stroke-linejoin:round"></line><line x1="281.11" y1="274.84" x2="278.48" y2="280.09" style="fill:none;stroke:#263238;stroke-linecap:round;stroke-linejoin:round"></line><line x1="280.67" y1="271.12" x2="275.64" y2="269.16" style="fill:none;stroke:#263238;stroke-linecap:round;stroke-linejoin:round"></line><line x1="283.62" y1="275.71" x2="284.39" y2="280.31" style="fill:none;stroke:#263238;stroke-linecap:round;stroke-linejoin:round"></line><line x1="281.76" y1="269.37" x2="278.7" y2="263.69" style="fill:none;stroke:#263238;stroke-linecap:round;stroke-linejoin:round"></line><line x1="280.45" y1="273.75" x2="275.86" y2="275.06" style="fill:none;stroke:#263238;stroke-linecap:round;stroke-linejoin:round"></line><line x1="287.01" y1="272.33" x2="291.17" y2="271.78" style="fill:none;stroke:#263238;stroke-linecap:round;stroke-linejoin:round"></line><line x1="285.48" y1="275.5" x2="287.01" y2="278.78" style="fill:none;stroke:#263238;stroke-linecap:round;stroke-linejoin:round"></line><path d="M294.23,275.49s-2.85,1.05-2.41,2.75-.65,2.32-1.53,3-1.53,3.17-1.53,3.17,1.09,1.27.22,1.9a8,8,0,0,0-2.19,3.6c0,.63,1.53.84,1.75,1.69s-.65,1.69,0,3,3.28,1.27,3.5,1.9,0,2.33,2,3.17a4.92,4.92,0,0,0,3.93-.21,5,5,0,0,0,2.19,1.48c1.09.21,2.19-1.9,2.84-1.9a11.88,11.88,0,0,1,2.85,0c1.74.21,2-1.06,2.4-1.9s2.41-.43,3.06-1.91-.65-4.86-.65-4.86a5.67,5.67,0,0,1,1.31-2.33c1.09-1.27-.66-3.59-.66-3.59a2.5,2.5,0,0,1-1.09-2.12,1.85,1.85,0,0,0-2.41-1.9c-1.09.42-2.18-2.54-2.18-2.54s-1.75-1.9-3.06-1.05a2,2,0,0,1-2.41-.22s-.87-1.9-2-.84l-1.09,1.06S296,274.43,294.23,275.49Z" style="fill:#fff;stroke:#263238;stroke-linecap:round;stroke-linejoin:round"></path><path d="M303.41,288.29A3.39,3.39,0,1,1,300,284.9,3.39,3.39,0,0,1,303.41,288.29Z" style="fill:#92E3A9;stroke:#263238;stroke-linecap:round;stroke-linejoin:round"></path><line x1="299.26" y1="284.68" x2="298.38" y2="278.99" style="fill:none;stroke:#263238;stroke-linecap:round;stroke-linejoin:round"></line><line x1="302.32" y1="285.99" x2="304.72" y2="281.84" style="fill:none;stroke:#263238;stroke-linecap:round;stroke-linejoin:round"></line><line x1="303.41" y1="290.15" x2="308" y2="293.86" style="fill:none;stroke:#263238;stroke-linecap:round;stroke-linejoin:round"></line><line x1="297.51" y1="290.8" x2="294.88" y2="296.05" style="fill:none;stroke:#263238;stroke-linecap:round;stroke-linejoin:round"></line><line x1="297.07" y1="287.09" x2="292.04" y2="285.12" style="fill:none;stroke:#263238;stroke-linecap:round;stroke-linejoin:round"></line><line x1="300.02" y1="291.68" x2="300.79" y2="296.27" style="fill:none;stroke:#263238;stroke-linecap:round;stroke-linejoin:round"></line><line x1="298.16" y1="285.34" x2="295.1" y2="279.65" style="fill:none;stroke:#263238;stroke-linecap:round;stroke-linejoin:round"></line><line x1="296.85" y1="289.71" x2="292.26" y2="291.02" style="fill:none;stroke:#263238;stroke-linecap:round;stroke-linejoin:round"></line><line x1="303.41" y1="288.29" x2="307.56" y2="287.74" style="fill:none;stroke:#263238;stroke-linecap:round;stroke-linejoin:round"></line><line x1="301.88" y1="291.46" x2="303.41" y2="294.74" style="fill:none;stroke:#263238;stroke-linecap:round;stroke-linejoin:round"></line><path d="M295.77,256.46s-2.14.79-1.81,2.07-.5,1.75-1.16,2.22a6,6,0,0,0-1.15,2.39s.82,1,.17,1.44a5.94,5.94,0,0,0-1.65,2.7c0,.48,1.15.64,1.32,1.28s-.5,1.27,0,2.22,2.47,1,2.63,1.44,0,1.75,1.48,2.39a3.78,3.78,0,0,0,3-.16,3.73,3.73,0,0,0,1.64,1.11c.83.16,1.65-1.43,2.14-1.43a8.81,8.81,0,0,1,2.14,0c1.32.16,1.48-.8,1.81-1.44s1.81-.31,2.31-1.43-.5-3.66-.5-3.66a4.39,4.39,0,0,1,1-1.75c.83-1-.49-2.71-.49-2.71a1.87,1.87,0,0,1-.82-1.59,1.39,1.39,0,0,0-1.82-1.43c-.82.32-1.64-1.91-1.64-1.91s-1.32-1.44-2.31-.8a1.48,1.48,0,0,1-1.81-.16s-.66-1.43-1.48-.64l-.82.8S297.08,255.66,295.77,256.46Z" style="fill:#fff;stroke:#263238;stroke-linecap:round;stroke-linejoin:round"></path><path d="M302.68,266.09a2.55,2.55,0,1,1-2.55-2.55A2.56,2.56,0,0,1,302.68,266.09Z" style="fill:#92E3A9;stroke:#263238;stroke-linecap:round;stroke-linejoin:round"></path><line x1="299.55" y1="263.38" x2="298.9" y2="259.1" style="fill:none;stroke:#263238;stroke-linecap:round;stroke-linejoin:round"></line><line x1="301.86" y1="264.37" x2="303.67" y2="261.24" style="fill:none;stroke:#263238;stroke-linecap:round;stroke-linejoin:round"></line><line x1="302.68" y1="267.49" x2="306.14" y2="270.29" style="fill:none;stroke:#263238;stroke-linecap:round;stroke-linejoin:round"></line><line x1="298.24" y1="267.99" x2="296.26" y2="271.94" style="fill:none;stroke:#263238;stroke-linecap:round;stroke-linejoin:round"></line><line x1="297.91" y1="265.19" x2="294.12" y2="263.71" style="fill:none;stroke:#263238;stroke-linecap:round;stroke-linejoin:round"></line><line x1="300.13" y1="268.65" x2="300.71" y2="272.1" style="fill:none;stroke:#263238;stroke-linecap:round;stroke-linejoin:round"></line><line x1="298.73" y1="263.87" x2="296.43" y2="259.59" style="fill:none;stroke:#263238;stroke-linecap:round;stroke-linejoin:round"></line><line x1="297.74" y1="267.16" x2="294.29" y2="268.15" style="fill:none;stroke:#263238;stroke-linecap:round;stroke-linejoin:round"></line><line x1="302.68" y1="266.09" x2="305.81" y2="265.68" style="fill:none;stroke:#263238;stroke-linecap:round;stroke-linejoin:round"></line><line x1="301.53" y1="268.48" x2="302.68" y2="270.95" style="fill:none;stroke:#263238;stroke-linecap:round;stroke-linejoin:round"></line><circle cx="304.28" cy="252.54" r="1.53" style="fill:#92E3A9"></circle><path d="M291.6,245.21a1,1,0,1,1-1-1A1,1,0,0,1,291.6,245.21Z" style="fill:#92E3A9"></path><path d="M309.31,253.85a.88.88,0,0,1-1.75,0,.88.88,0,1,1,1.75,0Z" style="fill:#92E3A9"></path><circle cx="298.82" cy="241.82" r="0.66" style="fill:#92E3A9"></circle><path d="M295.1,247.29a.88.88,0,0,1-1.75,0,.88.88,0,1,1,1.75,0Z" style="fill:#92E3A9"></path><path d="M295.1,242.7a.66.66,0,1,1-.66-.66A.66.66,0,0,1,295.1,242.7Z" style="fill:#92E3A9"></path><path d="M254.43,283.15a.88.88,0,0,1-1.75,0,.88.88,0,1,1,1.75,0Z" style="fill:#92E3A9"></path><path d="M255.74,278.23a1.2,1.2,0,1,1-1.2-1.2A1.2,1.2,0,0,1,255.74,278.23Z" style="fill:#92E3A9"></path><circle cx="249.62" cy="280.09" r="1.09" style="fill:#92E3A9"></circle><path d="M311.94,314.31a.77.77,0,1,1-.77-.77A.77.77,0,0,1,311.94,314.31Z" style="fill:#92E3A9"></path><path d="M308.44,309.83a.88.88,0,1,1-.88-.88A.87.87,0,0,1,308.44,309.83Z" style="fill:#92E3A9"></path><path d="M321.12,301.3a1.31,1.31,0,1,1-1.31-1.31A1.31,1.31,0,0,1,321.12,301.3Z" style="fill:#92E3A9"></path></g></svg>